# xmcd CD database file
#
# Track frame offsets:
#	150
#	17325
#	33468
#	49120
#	66758
#	85450
#	100760
#	117835
#	133405
#	151123
#	165348
#
# Disc length: 2394 seconds
#
# Revision: 2
# Processed by: cddbd v1.5.2PL0 Copyright (c) Steve Scherf et al.
# Submitted via: CDex 1.51
#
DISCID=8309580b
DTITLE=Michael Johnson - That's That
DYEAR=1988
DGENRE=Country
TTITLE0=Roller Coaster Run
TTITLE1=I Will Whisper Your Name
TTITLE2=Crying Shame
TTITLE3=It Must Be You
TTITLE4=That's That
TTITLE5=Oh Rosalee
TTITLE6=Too Soon To Tell
TTITLE7=Samson And Delilah
TTITLE8=The Moon Is Still Over Her Shoulder
TTITLE9=Diamond Dreams
TTITLE10=Some People's Lives
EXTD=YEAR: 1988
EXTT0=
EXTT1=
EXTT2=
EXTT3=
EXTT4=
EXTT5=
EXTT6=
EXTT7=
EXTT8=
EXTT9=
EXTT10=
PLAYORDER=
